<svg id="Layer_1" data-name="Layer 1" xmlns="http://www.w3.org/2000/svg" viewBox="0 0 142 50"><defs><style>.cls-1{fill:#ec1c24;}</style></defs><title>Untitled-1</title><path d="M60.42,6.53h3.23V17.59a7.36,7.36,0,0,1-1.31,4.82A6.61,6.61,0,0,1,57,24.5a9.3,9.3,0,0,1-3.2-.48,5.67,5.67,0,0,1-2.18-1.39,5.77,5.77,0,0,1-1.32-2.24h3.58a2.88,2.88,0,0,0,1.22.83,5.22,5.22,0,0,0,1.77.28,4.64,4.64,0,0,0,2.1-.41,2.43,2.43,0,0,0,1.12-1,5.31,5.31,0,0,0,.32-2.21,5.33,5.33,0,0,1-1.79,1.23,5.64,5.64,0,0,1-2.12.37,5.83,5.83,0,0,1-4.39-1.87,6.57,6.57,0,0,1-1.79-4.75,6.64,6.64,0,0,1,1.89-4.94A5.69,5.69,0,0,1,56.33,6.2a5.36,5.36,0,0,1,2.11.41,6.6,6.6,0,0,1,2,1.34ZM57.07,9.22a3.39,3.39,0,0,0-2.53,1,3.55,3.55,0,0,0-1,2.58,3.61,3.61,0,0,0,1,2.65,3.46,3.46,0,0,0,2.57,1,3.28,3.28,0,0,0,2.48-1,3.63,3.63,0,0,0,1-2.64,3.64,3.64,0,0,0-1-2.63A3.42,3.42,0,0,0,57.07,9.22Z"/><path d="M76.46,6.53H79.7V19.44H76.46V18.08a6.51,6.51,0,0,1-1.9,1.3,5.45,5.45,0,0,1-2.07.4,5.74,5.74,0,0,1-4.33-2A6.75,6.75,0,0,1,66.33,13a6.92,6.92,0,0,1,1.77-4.9A5.65,5.65,0,0,1,72.39,6.2a5.31,5.31,0,0,1,2.18.44A6,6,0,0,1,76.46,8ZM73.05,9.19a3.25,3.25,0,0,0-2.49,1.06,3.81,3.81,0,0,0-1,2.72,3.89,3.89,0,0,0,1,2.76,3.29,3.29,0,0,0,2.49,1.08,3.4,3.4,0,0,0,2.54-1.06,3.94,3.94,0,0,0,1-2.79,3.82,3.82,0,0,0-1-2.73A3.42,3.42,0,0,0,73.05,9.19Z"/><path d="M83,6.53h3.24V8A5.57,5.57,0,0,1,88,6.65a5.36,5.36,0,0,1,2.21-.45,4.18,4.18,0,0,1,2.19.59A4.24,4.24,0,0,1,94,8.52a5.3,5.3,0,0,1,1.9-1.73,5.22,5.22,0,0,1,2.45-.59,4.49,4.49,0,0,1,2.42.64,3.73,3.73,0,0,1,1.51,1.67,9.09,9.09,0,0,1,.45,3.36v7.57H99.47V12.89a5.54,5.54,0,0,0-.55-3,1.86,1.86,0,0,0-1.64-.78,2.45,2.45,0,0,0-1.48.48,2.73,2.73,0,0,0-1,1.31,8,8,0,0,0-.32,2.69v5.82H91.23V13.19A8.86,8.86,0,0,0,91,10.68a2.26,2.26,0,0,0-.77-1.16A2,2,0,0,0,89,9.14a2.44,2.44,0,0,0-1.47.48,2.8,2.8,0,0,0-1,1.35,8.28,8.28,0,0,0-.33,2.73v5.74H83Z"/><path d="M107.08,1.21a2,2,0,0,1,1.46.62,2,2,0,0,1,.61,1.5,2,2,0,0,1-.6,1.47,2,2,0,0,1-1.44.62,2,2,0,0,1-1.48-.63A2.1,2.1,0,0,1,105,3.28a2,2,0,0,1,.61-1.46A2,2,0,0,1,107.08,1.21Zm-1.62,5.32h3.24V19.44h-3.24Z"/><path d="M111.65,6.53h3.24V7.85a7.69,7.69,0,0,1,2-1.29,4.89,4.89,0,0,1,1.83-.36A4.44,4.44,0,0,1,122,7.54a4.6,4.6,0,0,1,1.13,3.37v8.53h-3.21V13.79a15,15,0,0,0-.2-3.07A2.1,2.1,0,0,0,119,9.56a2,2,0,0,0-1.27-.39,2.39,2.39,0,0,0-1.69.65,3.52,3.52,0,0,0-1,1.82,14.31,14.31,0,0,0-.14,2.62v5.18h-3.24Z"/><path d="M135.77,6.53H139V17.59a7.3,7.3,0,0,1-1.32,4.82,6.6,6.6,0,0,1-5.33,2.09,9.24,9.24,0,0,1-3.19-.48,5.56,5.56,0,0,1-3.5-3.63h3.57a3,3,0,0,0,1.23.83,5.12,5.12,0,0,0,1.76.28,4.64,4.64,0,0,0,2.1-.41,2.45,2.45,0,0,0,1.13-1,5.48,5.48,0,0,0,.32-2.21A5.43,5.43,0,0,1,134,19.07a5.68,5.68,0,0,1-2.12.37,5.85,5.85,0,0,1-4.4-1.87,6.61,6.61,0,0,1-1.79-4.75,6.65,6.65,0,0,1,1.9-4.94,5.69,5.69,0,0,1,4.11-1.68,5.31,5.31,0,0,1,2.1.41,6.64,6.64,0,0,1,2,1.34Zm-3.36,2.69a3.37,3.37,0,0,0-2.52,1,3.55,3.55,0,0,0-1,2.58,3.61,3.61,0,0,0,1,2.65,3.44,3.44,0,0,0,2.56,1,3.29,3.29,0,0,0,2.49-1,3.63,3.63,0,0,0,1-2.64,3.61,3.61,0,0,0-1-2.63A3.39,3.39,0,0,0,132.41,9.22Z"/><path d="M60.41,30.82h3.24V43.73H60.41V42.37a6.39,6.39,0,0,1-1.9,1.3,5.45,5.45,0,0,1-2.07.39,5.7,5.7,0,0,1-4.32-1.94,6.75,6.75,0,0,1-1.83-4.82,6.91,6.91,0,0,1,1.77-4.9,5.58,5.58,0,0,1,4.29-1.91,5.34,5.34,0,0,1,2.18.44,5.87,5.87,0,0,1,1.88,1.31ZM57,33.48a3.26,3.26,0,0,0-2.5,1.06,4.25,4.25,0,0,0,0,5.48A3.26,3.26,0,0,0,57,41.1,3.33,3.33,0,0,0,59.55,40a3.86,3.86,0,0,0,1-2.78,3.78,3.78,0,0,0-1-2.73A3.4,3.4,0,0,0,57,33.48Z"/><path d="M76.47,30.82H79.7V41.88a7.32,7.32,0,0,1-1.32,4.82,6.6,6.6,0,0,1-5.33,2.09,9.24,9.24,0,0,1-3.19-.48,5.67,5.67,0,0,1-2.18-1.39,5.6,5.6,0,0,1-1.32-2.24h3.57a2.93,2.93,0,0,0,1.22.82,5,5,0,0,0,1.77.28,4.65,4.65,0,0,0,2.1-.4,2.43,2.43,0,0,0,1.12-1,5.27,5.27,0,0,0,.33-2.21,5.43,5.43,0,0,1-1.79,1.23,5.73,5.73,0,0,1-2.13.37,5.84,5.84,0,0,1-4.39-1.87,6.63,6.63,0,0,1-1.79-4.75,6.59,6.59,0,0,1,1.9-4.94,5.69,5.69,0,0,1,4.11-1.68,5.31,5.31,0,0,1,2.1.41,6.64,6.64,0,0,1,2,1.34Zm-3.36,2.69a3.37,3.37,0,0,0-2.53,1,3.55,3.55,0,0,0-1,2.58,3.61,3.61,0,0,0,1,2.65,3.44,3.44,0,0,0,2.56,1,3.34,3.34,0,0,0,2.49-1,3.64,3.64,0,0,0,1-2.65,3.58,3.58,0,0,0-1-2.62A3.4,3.4,0,0,0,73.11,33.51Z"/><path d="M95.91,38.21H85.5a3.43,3.43,0,0,0,1.21,2.19,3.77,3.77,0,0,0,2.49.81A4.33,4.33,0,0,0,92.32,40l2.73,1.28a6.44,6.44,0,0,1-2.44,2.14,7.69,7.69,0,0,1-3.38.69,6.7,6.7,0,0,1-5-1.91,6.5,6.5,0,0,1-1.91-4.8,6.74,6.74,0,0,1,1.9-4.91,6.4,6.4,0,0,1,4.78-1.95,6.64,6.64,0,0,1,5,1.95,7.06,7.06,0,0,1,1.91,5.15Zm-3.24-2.55A3.29,3.29,0,0,0,91.4,33.9a3.67,3.67,0,0,0-2.19-.67,3.87,3.87,0,0,0-2.38.76,4.2,4.2,0,0,0-1.19,1.67Z"/><circle class="cls-1" cx="22.17" cy="12.13" r="6.21"/><circle class="cls-1" cx="22.17" cy="12.13" r="6.21"/><circle class="cls-1" cx="22.17" cy="38.06" r="6.21"/><circle class="cls-1" cx="22.17" cy="38.06" r="6.21"/><circle class="cls-1" cx="9.21" cy="25.65" r="6.21"/><circle class="cls-1" cx="9.21" cy="25.65" r="6.21"/><circle class="cls-1" cx="35.14" cy="25.65" r="6.21"/><path class="cls-1" d="M9.21,18.11a7.66,7.66,0,0,1,2.63.47,12.36,12.36,0,0,1,3.38-3.53,7.46,7.46,0,0,1-.59-2.92c0-.18,0-.36,0-.54a15.63,15.63,0,0,0-6.29,6.57A7.92,7.92,0,0,1,9.21,18.11Z"/><path class="cls-1" d="M29.71,12.13a7.46,7.46,0,0,1-.59,2.92,12.39,12.39,0,0,1,3.39,3.53,7.62,7.62,0,0,1,2.63-.47,7.89,7.89,0,0,1,.84.05,15.51,15.51,0,0,0-6.29-6.57C29.7,11.77,29.71,12,29.71,12.13Z"/><path class="cls-1" d="M14.63,38.06a7.5,7.5,0,0,1,.59-2.92,12.2,12.2,0,0,1-2.79-2.67,7.56,7.56,0,0,1-3.22.72H9a15.53,15.53,0,0,0,5.65,5.42C14.64,38.42,14.63,38.25,14.63,38.06Z"/><path class="cls-1" d="M35.14,33.19a7.52,7.52,0,0,1-3.22-.72,12.45,12.45,0,0,1-2.8,2.67,7.5,7.5,0,0,1,.59,2.92c0,.19,0,.36,0,.54a15.38,15.38,0,0,0,5.65-5.42Z"/><circle class="cls-1" cx="35.14" cy="25.65" r="6.21"/></svg>