<svg xmlns="http://www.w3.org/2000/svg" viewBox="0 0 689.45 241.17"><defs><style>.cls-1{fill:#231f20;}.cls-2{fill:none;}.cls-3{fill:#ec1c24;}</style></defs><title>ga_logo</title><g id="text"><path class="cls-1" d="M7145.89,7105.87h16.36v56.07q0,16.61-6.68,24.43-9,10.59-27,10.59a47.37,47.37,0,0,1-16.18-2.41,28.23,28.23,0,0,1-17.75-18.41h18.11a14.88,14.88,0,0,0,6.19,4.18,25.74,25.74,0,0,0,9,1.42,23.7,23.7,0,0,0,10.65-2.05,12.35,12.35,0,0,0,5.68-5.29q1.67-3.26,1.66-11.19a27.27,27.27,0,0,1-9.09,6.22,28.74,28.74,0,0,1-10.76,1.9,29.61,29.61,0,0,1-22.27-9.51q-9.08-9.51-9.08-24.06,0-15.59,9.63-25a28.67,28.67,0,0,1,20.81-8.54,27.76,27.76,0,0,1,10.68,2.07,33.94,33.94,0,0,1,10.08,6.83Zm-17,13.66a17.13,17.13,0,0,0-12.82,5.2,18.06,18.06,0,0,0-5.05,13.09,18.27,18.27,0,0,0,5.18,13.41,17.5,17.5,0,0,0,13,5.24,16.82,16.82,0,0,0,12.61-5.12q4.95-5.12,5-13.41t-5-13.3A17.2,17.2,0,0,0,7128.86,7119.53Z" transform="translate(-6854.78 -7078.92)"/><path class="cls-1" d="M7227.17,7105.87h16.42v65.46h-16.42v-6.92a32.4,32.4,0,0,1-9.64,6.59,27.11,27.11,0,0,1-10.49,2q-12.68,0-21.94-9.83t-9.25-24.46q0-15.17,8.95-24.85a28.52,28.52,0,0,1,21.76-9.68,27.68,27.68,0,0,1,11,2.22,30.27,30.27,0,0,1,9.56,6.68Zm-17.27,13.48a16.58,16.58,0,0,0-12.65,5.38q-5,5.39-5,13.81t5.13,14A16.62,16.62,0,0,0,7210,7158a16.93,16.93,0,0,0,12.84-5.38q5.08-5.39,5.09-14.11,0-8.55-5.09-13.84A17.14,17.14,0,0,0,7209.9,7119.35Z" transform="translate(-6854.78 -7078.92)"/><path class="cls-1" d="M7260.08,7105.87h16.42v7.52a28.11,28.11,0,0,1,9.36-6.92,27.43,27.43,0,0,1,11.23-2.28,20.92,20.92,0,0,1,11.08,3,21.83,21.83,0,0,1,7.95,8.79,26.53,26.53,0,0,1,9.6-8.79,26.21,26.21,0,0,1,12.43-3,23,23,0,0,1,12.28,3.24,18.85,18.85,0,0,1,7.62,8.49q2.32,5.23,2.32,17v38.39h-16.55v-33.21q0-11.13-2.77-15.07t-8.3-3.94a12.62,12.62,0,0,0-7.55,2.4,14.26,14.26,0,0,0-5,6.65q-1.62,4.24-1.63,13.63v29.54h-16.54v-31.71c0-5.85-.43-10.1-1.3-12.72a11.51,11.51,0,0,0-3.89-5.87,10.25,10.25,0,0,0-6.27-1.92,12.41,12.41,0,0,0-7.45,2.43,14.52,14.52,0,0,0-5,6.83q-1.66,4.4-1.66,13.84v29.12h-16.42Z" transform="translate(-6854.78 -7078.92)"/><path class="cls-1" d="M7382.42,7078.92a10,10,0,0,1,7.4,3.13,10.74,10.74,0,0,1,0,15.07,9.93,9.93,0,0,1-7.31,3.1,10.09,10.09,0,0,1-7.47-3.16,10.58,10.58,0,0,1-3.09-7.67,10.46,10.46,0,0,1,10.44-10.47Zm-8.22,26.95h16.43v65.46H7374.2Z" transform="translate(-6854.78 -7078.92)"/><path class="cls-1" d="M7405.55,7105.87H7422v6.71a39,39,0,0,1,10.12-6.55,24.41,24.41,0,0,1,9.28-1.84,22.47,22.47,0,0,1,16.52,6.79q5.7,5.78,5.71,17.09v43.26h-16.25v-28.67q0-11.71-1-15.56a10.63,10.63,0,0,0-3.66-5.86,10.26,10.26,0,0,0-6.45-2,12.1,12.1,0,0,0-8.55,3.33,17.91,17.91,0,0,0-5,9.23q-.72,3.06-.71,13.28v26.26h-16.43Z" transform="translate(-6854.78 -7078.92)"/><path class="cls-1" d="M7527.86,7105.87h16.36v56.07q0,16.61-6.67,24.43-9,10.59-27,10.59a47.41,47.41,0,0,1-16.18-2.41,28.23,28.23,0,0,1-17.75-18.41h18.11a14.85,14.85,0,0,0,6.2,4.18,25.64,25.64,0,0,0,9,1.42,23.7,23.7,0,0,0,10.65-2.05,12.38,12.38,0,0,0,5.69-5.29q1.65-3.26,1.65-11.19a27.27,27.27,0,0,1-9.09,6.22,28.67,28.67,0,0,1-10.76,1.9,29.57,29.57,0,0,1-22.26-9.51q-9.09-9.51-9.09-24.06,0-15.59,9.63-25a28.67,28.67,0,0,1,20.81-8.54,27.76,27.76,0,0,1,10.68,2.07,33.94,33.94,0,0,1,10.08,6.83Zm-17,13.66a17.09,17.09,0,0,0-12.81,5.2,18,18,0,0,0-5.06,13.09,18.27,18.27,0,0,0,5.18,13.41,17.52,17.52,0,0,0,13,5.24,16.82,16.82,0,0,0,12.61-5.12q5-5.12,5-13.41t-5-13.3A17.2,17.2,0,0,0,7510.83,7119.53Z" transform="translate(-6854.78 -7078.92)"/><path class="cls-1" d="M7145.83,7229h16.42v65.45h-16.42v-6.91a32.27,32.27,0,0,1-9.65,6.58,26.85,26.85,0,0,1-10.48,2q-12.69,0-21.94-9.84t-9.25-24.45q0-15.17,8.95-24.85a28.51,28.51,0,0,1,21.75-9.68,27.7,27.7,0,0,1,11.06,2.22,30.27,30.27,0,0,1,9.56,6.68Zm-17.27,13.47a16.59,16.59,0,0,0-12.65,5.39q-5,5.39-5,13.81t5.13,13.95a16.61,16.61,0,0,0,12.62,5.48,16.9,16.9,0,0,0,12.83-5.39q5.1-5.39,5.1-14.11,0-8.54-5.1-13.83A17.12,17.12,0,0,0,7128.56,7242.47Z" transform="translate(-6854.78 -7078.92)"/><path class="cls-1" d="M7227.23,7229h16.36v56.07q0,16.61-6.68,24.43-9,10.58-27,10.58a47.39,47.39,0,0,1-16.18-2.4,29.17,29.17,0,0,1-11.07-7.07,28.77,28.77,0,0,1-6.68-11.34h18.11a15,15,0,0,0,6.2,4.18,25.65,25.65,0,0,0,9,1.41q6.61,0,10.65-2a12.32,12.32,0,0,0,5.68-5.3q1.67-3.24,1.66-11.19a27.16,27.16,0,0,1-9.09,6.23,28.87,28.87,0,0,1-10.76,1.89,29.6,29.6,0,0,1-22.27-9.5q-9.07-9.51-9.08-24.07,0-15.57,9.63-25a28.67,28.67,0,0,1,20.81-8.54,27.76,27.76,0,0,1,10.68,2.07,33.75,33.75,0,0,1,10.08,6.83Zm-17,13.65a17.1,17.1,0,0,0-12.81,5.21,18,18,0,0,0-5.06,13.09,18.27,18.27,0,0,0,5.18,13.41,17.51,17.51,0,0,0,13,5.23,16.81,16.81,0,0,0,12.61-5.11q5-5.11,5-13.41t-5-13.3A17.21,17.21,0,0,0,7210.2,7242.65Z" transform="translate(-6854.78 -7078.92)"/><path class="cls-1" d="M7325.77,7266.48H7273a17.57,17.57,0,0,0,6.11,11.1c3.3,2.75,7.53,4.12,12.66,4.12a21.89,21.89,0,0,0,15.82-6.44l13.84,6.5a32.74,32.74,0,0,1-12.39,10.86,38.71,38.71,0,0,1-17.15,3.52q-15.4,0-25.09-9.72t-9.68-24.33q0-15,9.65-24.88t24.22-9.89q15.47,0,25.15,9.89t9.69,26.14Zm-16.42-12.93a16.43,16.43,0,0,0-6.42-8.91,18.64,18.64,0,0,0-11.12-3.43,19.62,19.62,0,0,0-12.05,3.85c-2.17,1.61-4.18,4.43-6,8.49Z" transform="translate(-6854.78 -7078.92)"/><rect class="cls-2" width="689.45" height="241.17"/></g><g id="LOGO"><circle class="cls-3" cx="97.19" cy="55.35" r="31.46"/><circle class="cls-3" cx="97.19" cy="55.35" r="31.46"/><circle class="cls-3" cx="97.19" cy="186.81" r="31.46"/><circle class="cls-3" cx="97.19" cy="186.81" r="31.46"/><circle class="cls-3" cx="31.46" cy="123.87" r="31.46"/><circle class="cls-3" cx="31.46" cy="123.87" r="31.46"/><circle class="cls-3" cx="162.92" cy="123.87" r="31.46"/><path class="cls-3" d="M6886.24,7164.57a37.85,37.85,0,0,1,13.34,2.41,62.25,62.25,0,0,1,17.15-17.9,38.06,38.06,0,0,1-3-14.81c0-.92,0-1.83.1-2.73a78.9,78.9,0,0,0-31.89,33.27A40.32,40.32,0,0,1,6886.24,7164.57Z" transform="translate(-6854.78 -7078.92)"/><path class="cls-3" d="M6990.19,7134.27a38.06,38.06,0,0,1-3,14.81,62.52,62.52,0,0,1,17.15,17.9,37.85,37.85,0,0,1,13.34-2.41,40.32,40.32,0,0,1,4.28.24,79,79,0,0,0-31.9-33.27C6990.15,7132.44,6990.19,7133.35,6990.19,7134.27Z" transform="translate(-6854.78 -7078.92)"/><path class="cls-3" d="M6913.75,7265.73a38.06,38.06,0,0,1,3-14.81,62.31,62.31,0,0,1-14.16-13.58,38,38,0,0,1-16.33,3.67l-1.05,0a79,79,0,0,0,28.66,27.47C6913.79,7267.56,6913.75,7266.65,6913.75,7265.73Z" transform="translate(-6854.78 -7078.92)"/><path class="cls-3" d="M7017.7,7241a38,38,0,0,1-16.33-3.67,62.52,62.52,0,0,1-14.16,13.58,38.06,38.06,0,0,1,3,14.81c0,.92,0,1.83-.11,2.73a79,79,0,0,0,28.67-27.47Z" transform="translate(-6854.78 -7078.92)"/><circle class="cls-3" cx="162.92" cy="123.87" r="31.46"/></g></svg>